grf
version=1
nRows=27
nColumns=19
inDegrees=yes
endheader
time	ground_force_1_vx	ground_force_1_vy	ground_force_1_vz	ground_force_1_px	ground_force_1_py	ground_force_1_pz	ground_moment_1_mx	ground_moment_1_my	ground_moment_1_mz	ground_force_2_vx	ground_force_2_vy	ground_force_2_vz	ground_force_2_px	ground_force_2_py	ground_force_2_pz	ground_moment_2_mx	ground_moment_2_my	ground_moment_2_mz
0.000000	-11.628093	627.841995	-69.117413	0.169771	0.000000	-1.036002	-0.000000	4.024826	0.000000	1.170737	640.181534	70.706342	0.191430	0.000000	-1.429575	0.000000	-0.835345	0.000000
0.001000	-11.696288	629.276648	-69.278150	0.169051	0.000000	-1.032323	-0.000000	4.029684	0.000000	0.754066	640.138322	70.806470	0.190219	0.000000	-1.430110	0.000000	-0.769833	0.000000
0.002000	-11.771311	630.795440	-69.452185	0.168320	0.000000	-1.037676	-0.000000	4.034268	0.000000	0.329670	640.108988	70.919538	0.190629	0.000000	-1.429090	0.000000	-0.704017	0.000000
0.003000	-11.853458	632.397159	-69.640062	0.170245	0.000000	-1.035066	-0.000000	4.038528	0.000000	-0.098345	640.101347	71.045677	0.190374	0.000000	-1.427480	0.000000	-0.638559	0.000000
0.004000	-11.942931	634.079717	-69.842096	0.169846	0.000000	-1.033927	-0.000000	4.042440	0.000000	-0.526436	640.121499	71.184805	0.190062	0.000000	-1.429984	0.000000	-0.573978	0.000000
0.005000	-12.039858	635.840008	-70.058425	0.169327	0.000000	-1.037540	-0.000000	4.045982	0.000000	-0.951631	640.173967	71.336629	0.191347	0.000000	-1.428141	0.000000	-0.510665	0.000000
0.006000	-12.144310	637.673705	-70.289010	0.170361	0.000000	-1.034854	-0.000000	4.049125	0.000000	-1.371431	640.262151	71.500683	0.189217	0.000000	-1.434320	0.000000	-0.448898	0.000000
0.007000	-12.256250	639.575188	-70.533611	0.170451	0.000000	-1.034603	0.000000	4.051842	0.000000	-1.783647	640.388500	71.676307	0.190940	0.000000	-1.427869	0.000000	-0.388871	0.000000
0.008000	-12.375455	641.537945	-70.791762	0.171254	0.000000	-1.034729	0.000000	4.054112	0.000000	-2.186253	640.554164	71.862627	0.191859	0.000000	-1.427482	0.000000	-0.330735	0.000000
0.009000	-12.501481	643.554971	-71.062696	0.170259	0.000000	-1.034966	0.000000	4.055920	0.000000	-2.577415	640.758557	72.058618	0.193382	0.000000	-1.430468	0.000000	-0.274621	0.000000
0.010000	-12.633708	645.618508	-71.345332	0.171367	0.000000	-1.031809	0.000000	4.057240	0.000000	-2.955626	641.000081	72.263201	0.196182	0.000000	-1.435712	0.000000	-0.220640	0.000000
0.011000	-12.771471	647.719470	-71.638446	0.170541	0.000000	-1.034647	0.000000	4.058031	0.000000	-3.319671	641.277850	72.475314	0.192425	0.000000	-1.428558	0.000000	-0.168878	0.000000
0.012000	-12.914079	649.847596	-71.940900	0.172595	0.000000	-1.029499	0.000000	4.058252	0.000000	-3.668504	641.592210	72.693971	0.193441	0.000000	-1.427571	0.000000	-0.119405	0.000000
0.013000	-13.060631	651.992497	-72.251671	0.170107	0.000000	-1.033645	0.000000	4.057880	0.000000	-4.001233	641.943459	72.918276	0.193362	0.000000	-1.428432	0.000000	-0.072282	0.000000
0.014000	-13.209906	654.144457	-72.569669	0.171097	0.000000	-1.038639	0.000000	4.056904	0.000000	-4.317199	642.330762	73.147382	0.193260	0.000000	-1.426877	0.000000	-0.027542	0.000000
0.015000	-13.360552	656.294445	-72.893632	0.170206	0.000000	-1.034323	0.000000	4.055330	0.000000	-4.616019	642.751962	73.380452	0.191256	0.000000	-1.426027	0.000000	0.014810	0.000000
0.016000	-13.511306	658.433764	-73.222256	0.169633	0.000000	-1.035813	0.000000	4.053193	0.000000	-4.897601	643.203626	73.616655	0.193532	0.000000	-1.430883	0.000000	0.054784	0.000000
0.017000	-13.660997	660.553717	-73.554333	0.170568	0.000000	-1.033241	0.000000	4.050560	0.000000	-5.162132	643.681463	73.855155	0.194475	0.000000	-1.429637	0.000000	0.092402	-0.000000
0.018000	-13.808449	662.645518	-73.888714	0.170653	0.000000	-1.035229	0.000000	4.047517	0.000000	-5.410038	644.181141	74.095080	0.194836	0.000000	-1.430124	0.000000	0.127697	-0.000000
0.019000	-13.952479	664.700363	-74.224224	0.170602	0.000000	-1.036581	0.000000	4.044151	0.000000	-5.641974	644.698729	74.335496	0.194309	0.000000	-1.428124	0.000000	0.160720	-0.000000
0.020000	-14.091921	666.709535	-74.559684	0.173060	0.000000	-1.030995	0.000000	4.040557	0.000000	-5.858787	645.230625	74.575410	0.194002	0.000000	-1.429587	-0.000000	0.191541	-0.000000
0.021000	-14.225656	668.664828	-74.893979	0.170686	0.000000	-1.033994	0.000000	4.036829	0.000000	-6.061461	645.773425	74.813795	0.195087	0.000000	-1.429559	-0.000000	0.220242	-0.000000
0.022000	-14.352626	670.559333	-75.226079	0.173235	0.000000	-1.028880	0.000000	4.033054	0.000000	-6.251058	646.323845	75.049589	0.196010	0.000000	-1.430230	-0.000000	0.246923	-0.000000
0.023000	-14.471865	672.388267	-75.555062	0.170553	0.000000	-1.033967	0.000000	4.029311	0.000000	-6.428665	646.878443	75.281731	0.197006	0.000000	-1.432399	-0.000000	0.271698	-0.000000
0.024000	-14.582535	674.149270	-75.880134	0.171490	0.000000	-1.034419	0.000000	4.025683	0.000000	-6.595337	647.433738	75.509244	0.194138	0.000000	-1.429668	-0.000000	0.294687	-0.000000
0.025000	-14.683917	675.841772	-76.200620	0.171227	0.000000	-1.032516	0.000000	4.022252	0.000000	-6.752079	647.987127	75.731273	0.195122	0.000000	-1.431378	-0.000000	0.316005	-0.000000
0.026000	-14.775376	677.466131	-76.515903	0.170163	0.000000	-1.033138	0.000000	4.019089	0.000000	-6.899878	648.537570	75.947019	0.195779	0.000000	-1.429134	-0.000000	0.335749	-0.000000
